<svg width="255" height="30" viewBox="0 0 255 30" version="1.1" xmlns="http://www.w3.org/2000/svg" xmlns:xlink="http://www.w3.org/1999/xlink">
<title>Arrow</title>
<desc>Created using Figma</desc>
<g id="Canvas" transform="translate(-1859 -599)">
<g id="Arrow">
<use xlink:href="#path0_stroke" transform="matrix(1 -2.44162e-16 2.45699e-16 1 1859.21 614.1)" fill="#666ADE"/>
</g>
</g>
<defs>
<path id="path0_stroke" d="M 254.206 1.41421C 254.987 0.633165 254.987 -0.633165 254.206 -1.41421L 241.478 -14.1421C 240.697 -14.9232 239.431 -14.9232 238.65 -14.1421C 237.869 -13.3611 237.869 -12.0948 238.65 -11.3137L 249.963 0L 238.65 11.3137C 237.869 12.0948 237.869 13.3611 238.65 14.1421C 239.431 14.9232 240.697 14.9232 241.478 14.1421L 254.206 1.41421ZM 0 2L 252.792 2L 252.792 -2L 0 -2L 0 2Z"/>
</defs>
</svg>
