<?xml version="1.0" encoding="utf-8"?>
<!-- Generator: Adobe Illustrator 22.0.0, SVG Export Plug-In . SVG Version: 6.00 Build 0)  -->
<svg version="1.1" id="Calque_1" xmlns="http://www.w3.org/2000/svg" xmlns:xlink="http://www.w3.org/1999/xlink" x="0px" y="0px"
	 viewBox="0 0 778.5 593.4" style="enable-background:new 0 0 778.5 593.4;" xml:space="preserve">
<style type="text/css">
	.st0{fill:#FEFEFE;}
	.st1{fill:#44469D;}
	.st2{fill:#2E3192;}
	.st3{fill:#F7972B;}
	.st4{fill:#F7972C;}
	.st5{fill:#F5962D;}
	.st6{fill:#FDFDFE;}
	.st7{fill:#FDFDFD;}
	.st8{fill:#73C14A;}
	.st9{fill:#CAC8E5;}
	.st10{fill:#609547;}
	.st11{fill:#CBC9E5;}
	.st12{fill:#C9C8E4;}
	.st13{fill:#619745;}
	.st14{fill:#313494;}
</style>
<path class="st0" d="M122.2,120.6L122.2,120.6C101.1,146.1,85.5,165,87.4,198l17.5,223.4c1.7,28.5,12.7,55.7,31.3,77.5l11.1,13
	c10.3,12,22.6,22,36.4,29.6l55.1,30.2c13.7,7.5,40.6,14.4,56.2,14.3h43.9c10,0,47.2-4.4,57-6.8l79.4-18.9
	c22.5-5.3,43.1-16.5,59.9-32.4l35.1-33.4c30.3-28.8,45.1-70.3,39.7-111.8l-26.9-208c-3.6-27.7-15.9-53.6-35.3-73.7
	c-8.5-8.8-16.7-17.2-21.8-21.7c-9.7-8.7-31-25.1-48.7-38.4c-17.8-13.4-38.7-22-60.8-25.1l-36.9-5.1c-6-0.8-12-1.2-18-1.2h-34.3
	c-12,0-36.7,3.4-48.3,6.7l-43.8,14.2c-21.6,6.1-41.3,17.6-57.1,33.5l-47.7,47.7C127.6,114.4,124.8,117.4,122.2,120.6z"/>
<path class="st1" d="M13.6,171c0.3,0,0.7,0,1,0c0,2.1,0,4.2,0,6.3c-0.3,0-0.7,0-1,0C13.6,175.2,13.6,173.1,13.6,171z"/>
<path class="st2" d="M14.5,177.3c0-2.1,0-4.2,0-6.3c1.3-2.7,3.9-3.1,6.3-3.4c6.9-0.8,13.7-1.3,20.5-2c10.6-1.2,21.2-2.3,31.9-3.5
	c5.4-0.6,10.8-1.2,16.1-1.8c7.2-0.9,14.5-1.8,21.8-2.8c4.3-0.4,8.8-0.8,13.1-1.3c7.4-0.8,15-1.4,22.4-2.2c3.9-0.4,7.7-0.8,11.7-1.2
	c1.4-0.2,2.9-0.5,4.5-0.9c-7.4-6.9-14.6-13.5-21.7-20.2c-1.9-1.8-4-3.6-5.9-5.4c-3.1-3.6-6.4-6.9-9.2-10.6c-7-9.2-13.9-18.4-19-28.8
	c-1.9-3.9-0.8-7.3,4-10.1c5-3,10.4-5.3,15.8-7.6c9.6-4.2,19.3-8.1,29-12c11.4-4.5,22.8-9.1,34.2-13.3c8.9-3.4,18-6.6,26.9-9.5
	c14.5-4.6,29.3-6.7,44.6-5.5c2.3,0.2,4.6,0.6,6.9,0.9c0.4,0.2,0.8,0.6,1.2,0.7c5.3,1.4,10.6,2.8,15.8,4.2c8.3,2.1,16.1,5.4,23.5,9.4
	c8.2,4.3,16.3,9,23.2,15.2c9.9,9.1,18.3,19.6,26.3,30.3c10.2,13.7,20,27.7,27.1,43.3c0.7,1.5,1.7,2.1,3.7,1.8c7-1.2,14-2,21-3
	c5.7-0.8,11.4-1.5,17.1-2.4c7.9-1.3,15.7-2.6,23.5-3.8c7.8-1.2,15.7-2,23.5-3.2c1.9-0.3,2.9,0.6,3.2,2.3c0.4,3.3,0.8,6.7,1.1,10
	c0.3,3,0.5,3.4,3.5,3.2c11.7-0.5,23.4-1.2,34.9-1.7c10.8-0.6,21.6-1.1,32.4-1.6c3.6-0.2,7.1-0.6,10.7-0.9c5.8-0.3,11.7-0.6,17.5-1
	c12.7-0.9,25.6-1.8,38.3-2.7c5.4-0.4,10.7-0.8,16.1-1c4.7-0.2,5.6,0.6,6.1,5.2c0.7,6.9,1.3,13.9,1.9,20.8c0.6,5.8,1.1,11.5,1.7,17.2
	c0.5,4.3,1.2,8.7,1.8,12.9c0.4,1.9,1.3,3.6,3.9,3.4c10.6-0.7,21.2-1.3,31.8-1.8c1.5-0.1,3.1-0.1,4.5,0c2.5,0.1,3.3,2.1,3.9,4
	c1.6,5.7,3,11.5,4.6,17.2c1.5,5.5,3.4,11,5,16.5c1.6,5.7,3.1,11.5,4.7,17.2c1.5,5.6,3.3,11.2,4.8,16.9c2.2,8,4.4,16,6.7,23.9
	c1.9,6.8,4.1,13.5,6,20.3c1.6,5.8,3.1,11.7,4.7,17.5c1.5,5.6,3.3,11.2,4.9,16.8c1.8,6.4,3.7,12.7,5.4,19.1c0.2,0.8-0.3,2.1-1,2.6
	c-4.7,3.8-9.6,7.2-14.3,10.9c-4.6,3.6-9.2,7.3-13.8,10.9c-6.4,4.9-12.7,9.7-19,14.8c-4.6,3.7-9.2,7.3-13.8,11
	c-7.4,5.8-15,11.6-22.4,17.4c-6.5,5-12.8,10.2-19.3,15.2c-9.7,7.6-19.6,15.2-29.4,22.8c-6.3,4.8-12.5,9.8-18.6,14.7
	c-7.5,5.9-15,11.7-22.5,17.6c-6.9,5.4-13.9,10.7-20.8,16.1c-10,7.9-19.9,16.1-30.2,23.7c-4.1,3-8.9,5-13.6,6.9
	c-8.2,3.1-16.5,5.9-24.9,8.5c-6.8,2.1-13.7,4-20.6,5.8c-6.5,1.7-13,3.4-19.6,4.9c-4.8,1.2-9.7,2.1-14.7,3.2
	c-4.8,1.1-9.7,2.1-14.5,3.1c-4.3,0.9-8.8,1.5-13.1,2.2c-5.1,0.8-10.2,1.4-15.4,2.1c-2.2,0.3-4.4,0.4-6.8,0.5c-0.3-0.3-0.6-0.6-1-0.8
	c-5.8-2.4-11.6-4.8-17.4-7.1c-10.8-4.3-21.7-8.8-32.6-13.1c-9.2-3.7-18.3-7.4-27.6-11.1c-8.2-3.3-16.5-6.6-24.7-9.8
	c-9.9-4.1-19.9-8.2-29.8-12.3c-8.4-3.5-16.9-6.9-25.4-10.2c-9-3.7-17.9-7.3-26.8-11c-9.9-4.1-20-8.1-29.9-12.2
	c-5.8-2.3-11.7-4.5-17.5-6.9c-5.8-2.5-11.5-5-17.3-7.4c-7.7-3.2-15.4-6.3-23.2-9.4c-10.7-4.3-21.5-8.7-32.2-13.1
	c-2.4-1-4.6-2.3-7.1-3.1c-2.4-0.8-3.1-2.6-3.3-4.6c-1-7.3-1.7-14.7-2.8-21.9c-1.5-11.3-3.4-22.6-5-33.9c-0.8-5.7-1.4-11.4-2.2-17.1
	c-1.3-9-2.7-17.9-4.1-26.8c-0.8-5.7-1.4-11.4-2.2-17.1c-1-6.9-2-13.7-3.1-20.7c-0.4-2.4-0.8-4.9-1.1-7.3c-1.3-9.6-2.5-19.2-3.8-28.8
	c-0.9-6.6-1.8-13.1-2.7-19.7c-1.2-8.2-2.2-16.5-3.5-24.7c-1.6-11.3-3.4-22.6-5-33.9C15.1,184.1,14.9,180.7,14.5,177.3z M363.4,208.2
	L363.4,208.2c-0.3-0.4-0.7-0.7-1-1l0,0c-0.3-0.4-0.5-1-1-1.3c-5.2-4.2-11.4-4.3-17.6-3.7c-5.1,0.6-10.1,1.7-15.2,2.5
	c-7.2,1-14.4,1.7-21.6,2.6c-2,0.2-3.5,1.7-3.4,3.8c0.2,4.3,0.6,8.6,1.1,12.8c0.2,2.5,0.6,5,1,7.5c0.6,4.1,1.2,8.3,1.7,12.4
	c0.5,3.5,1,6.9,1.4,10.5c0.7,5.7,1.4,11.4,2.1,17.1c0.4,3.2,0.7,6.5,1.1,9.7c0.8,5.5,1.6,11,2.4,16.6c1,6.6,1.8,13.2,2.7,19.8
	c0.7,5.4,1.4,10.7,1.9,16.1c0.7,6.3,1.2,12.5,1.7,18.9c0.3,2.9,0.7,5.9,1,8.8c0.6,4.2,1.2,8.5,1.6,12.7c0.4,3.2,0.7,6.4,1.2,9.6
	c1.1,7.5,2.2,15.2,3.3,22.7c0.3,2.2,1.5,3.4,4,3.4c0.5,0,0.9,0,1.4,0c1-0.3,2-0.5,3-0.8c4.8-0.6,9.7-1.3,14.5-1.8
	c7.9-1,15.9-1.9,23.8-2.8c4.4-0.5,5.2-1.4,5-5.8c-0.1-1.3-0.1-2.6-0.3-3.9c-0.9-6.9-1.6-13.6-2.5-20.5c-0.8-5.8-1.4-11.6-2.2-17.5
	c-0.7-5.6-1.4-11.2-2.1-16.9c-0.5-3.8-0.9-7.6-1.3-11.4c-0.7-7.5-1.3-15.1-1.8-22.6c-0.2-2.7,0.9-3.5,3.5-2.8
	c0.9,0.2,1.7,1.1,2.3,1.7c4.2,5,8.4,10,12.7,15c10.1,11.7,20.4,23.3,30.5,34.8c11.4,12.9,22.7,25.9,34.2,38.7c0.9,1,2.7,1.6,4,1.4
	c8.4-1.2,16.8-2.4,25.1-4c4-0.8,5.7-1.7,5.1-6.3c-0.3-2.3-0.5-4.6-0.8-6.9c-1.2-10-2.3-20-3.5-30c-1-8.1-1.7-16.2-2.7-24.4
	c-0.7-5.8-1.3-11.6-2-17.5c-0.9-6.9-1.8-13.8-2.7-20.7c-0.6-4.8-1.1-9.7-1.7-14.6c-0.8-6.2-1.7-12.4-2.5-18.5
	c-1-7.9-1.7-15.9-2.8-23.9c-1.1-8.6-2.3-17.2-3.5-25.9c-1.2-9.2-2.3-18.2-3.4-27.4c-0.8-6.3-1.4-12.6-2.1-19c0-1.4,0.1-2.9,0-4.3
	c-0.1-1.8-0.9-3.5-2.7-3.7c-2.3-0.3-4.8,0-7.1,0.3c-3.2,0.4-6.4,1.1-9.6,1.4c-5.2,0.7-10.4,1.3-15.6,1.9c-5.2,0.8-10.3,1.7-15.5,2.4
	c-2.9,0.4-3.8,1-3.5,3.9c0.5,4.7,1.3,9.5,1.8,14.2c1,7.5,1.7,15.1,2.7,22.6c0.3,2.4,0.6,4.9,1,7.3c0.9,5.4,1.8,10.9,2.6,16.3
	c0.7,5.1,1.3,10.3,1.8,15.4c0.3,2.4,0.6,4.9,1,7.3c0.6,3.7,1.2,7.2,1.7,10.9c0.2,1.4,0.6,2.7,0.6,4c0.1,2.3,0,4.7-0.1,7
	c-0.8-0.5-1.7-0.9-2.3-1.5c-2.9-3-5.5-6.3-8.4-9.2c-7.6-7.7-15.4-15.2-23.1-23c-6.7-6.8-13.1-13.6-19.7-20.4
	C364,208.9,363.7,208.6,363.4,208.2z M177,336.5c-0.1,1.4-0.2,2.7-0.3,4.1c-0.8,8.7-1.6,17.3-2.5,26c0,0.3,0,0.7,0,1
	c-0.6,5.3-1.3,10.5-1.7,15.8c-0.4,3.9-0.6,7.8-1,11.7c-0.5,5.5-1.1,10.9-1.6,16.4c-0.1,1-0.4,1.8-0.5,2.8c-0.2,2.5-0.6,5-0.2,7.3
	c0.2,0.9,2.4,1.4,3.7,2.1c0.1,0.1,0.3,0.1,0.5,0.1c0.5,0.1,1,0.1,1.4,0.2c1.8,1.6,3.6,1.1,5.4,0c2.6-0.3,5.2-0.6,7.8-0.9
	c5.4-0.6,10.8-1.2,16.2-1.8c2.3-0.3,4.1-1.5,4.5-3.9c1.3-6.1,2.4-12.2,3.5-18.3c0.9-4.5,1.6-9.1,2.4-13.6c1.1-6.2,2-12.4,2.9-18.7
	c0.4-2.5,1.4-3.7,4-4.1c6.8-1.1,13.5-2.2,20.4-3.4c2.4-0.4,4.8-0.7,7.3-1.1c0.5,1.2,0.9,2.2,1.4,3.3c0.6,1.6,1.2,3.4,1.7,5
	c3,8,5.9,16,9,24c2.6,6.9,5.6,13.6,7.8,20.6c1.2,3.8,6.1,5.1,10,3.2c4.7-0.6,9.5-1.3,14.2-1.8c5.4-0.7,10.8-1.3,16.2-1.9
	c4.6-0.5,6.1-2.9,4.5-7.3c-0.7-2-1.6-4-2.3-6c-2.2-6.4-4.3-12.7-6.6-19c-3.4-9.7-6.9-19.2-10.3-28.8c-3.9-11-7.7-22.1-11.6-33.1
	c-3.9-11.1-7.7-22.3-11.6-33.4c-3.7-10.6-7.2-21.2-10.9-31.8c-3.8-10.6-7.5-21.2-11.4-31.9c-2.2-6.3-4.6-12.4-6.9-18.7
	c-0.8-2-2.1-3.1-4.3-2.9c-4.6,0.5-9.2,1.2-13.8,1.5c-4.3,0.4-8.8,0.5-13.2,0.8c-5.4,0.4-10.9,0.8-16.3,1.2c-1.6,0.1-3.4,0.3-3.9,2.4
	c-0.3,0.3-0.8,0.7-0.8,1c-0.4,3.1-0.8,6.2-1,9.3c-0.4,4.1-0.6,8.1-1,12.2c-0.8,8.2-1.7,16.3-2.6,24.5c-0.3,3.2-0.6,6.4-1,9.6
	c-0.6,5-1.3,10-1.8,15.1c-0.4,3.8-0.6,7.5-1,11.2c-0.8,6.9-1.7,13.9-2.4,20.9c-0.5,4.7-0.7,9.6-1.1,14.3c0,0.4-0.2,0.8-0.2,1.2
	c-0.5,4.4-1,8.8-1.4,13.2C177,336.3,176.9,336.3,177,336.5z M672.4,220.6L672.4,220.6c-0.6-1.9-1.1-3.9-1.9-5.7
	c-1.2-2.4-3.2-3.3-5.6-2.9c-5.6,1.1-11.2,2.2-16.8,3.2c-6.2,1.1-12.5,1.8-18.7,2.7c-2.4,0.4-4.7,0.6-7.1,1
	c-5.1,0.9-10.2,1.9-15.3,2.5c-4,0.5-5.6,1.9-5.6,5.9c0.2,21.8,0.5,43.7,0.8,65.5c0.1,9.3,0.3,18.6,0.5,27.9
	c0.1,7.8,0.3,15.7,0.5,23.5c0.1,3.1,0,6.1,0,9.2c0.1,5.8,0.3,11.6,0.5,17.3c0.1,3.4,2,4.2,4.9,2.4c0.4,0,0.8,0,1.2,0
	c6-0.9,11.9-1.7,17.9-2.7c2.9-0.5,5.8-1,8.6-1.7c1-0.2,2-1,2.4-1.8c0.6-1.3,0.8-2.8,1-4.2c0.9-9.4,1.7-18.7,2.7-28
	c0.1-1.1,1-2.6,1.8-3c1.6-0.7,3.6-0.8,5.3-1.1c4.2-0.6,8.6-1,12.8-1.6c3.7-0.6,4-0.5,6,2.5c0,0.2,0,0.3,0.1,0.5
	c3.9,8.2,7.6,16.5,11.6,24.7c1.7,3.7,6.7,5.1,10,3.3c1-0.1,1.9-0.1,2.8-0.2c0.9-0.2,1.7-0.5,2.6-0.7c6.3-0.9,12.5-1.7,19.1-2.7
	c-0.4-2-0.5-3.4-0.9-4.7c-1.5-5.3-3.2-10.6-4.7-15.9c-1.5-5.2-3.1-10.5-4.7-15.7c-1.9-6.2-4-12.4-5.9-18.5
	c-2.3-7.2-4.5-14.5-6.8-21.7c-1.6-5.3-3.3-10.6-4.9-15.8c-1.8-5.9-3.7-11.8-5.5-17.7c-2-6.4-4.1-12.8-6.1-19.2
	c-0.2-0.4-0.5-0.8-0.7-1.3c-0.1-0.4-0.1-0.9-0.2-1.3c-0.2-0.6-0.5-1.2-0.7-1.7c-0.1-0.4-0.1-0.8-0.2-1.2
	C672.6,221.3,672.5,221,672.4,220.6z M539.2,381.4c0.6,0,1.2,0,1.6,0c7.8-0.7,15.5-1.4,23.4-2.1c6.5-0.6,12.9-1.4,19.4-1.9
	c2.4-0.2,3.5-1.3,3.4-3.9c-0.4-7.3-0.7-14.8-0.9-22.1c-0.2-5.5-0.2-10.9-0.5-16.4c-0.6-13.9-1.3-27.7-1.8-41.6c-0.2-5-0.7-10-1-15.1
	c-0.4-7.7-0.7-15.3-1.1-23.1c-0.3-5.4-0.7-10.7-0.9-16.1c-0.4-9.5-0.8-18.9-1-28.4c-0.1-3.6,1.1-4.7,4.7-4.9
	c4.3-0.3,8.6-0.6,12.9-0.8c7.3-0.4,14.7-0.9,22.1-1.2c2-0.1,3.1-1.1,3.2-3c0.1-1.1,0.2-2.1,0-3.1c-0.6-4.7-1.3-9.5-1.9-14.2
	c-0.8-5.6-1.4-11.3-2.1-16.9c-0.2-0.8-0.4-1.5-0.6-2.2c-0.1-1-0.1-2-0.2-3c-0.2-1-0.4-1.9-0.6-3c-0.1-1.1-0.2-2.2-0.2-3.3
	c-0.2-0.8-0.4-1.4-0.5-2.2c0-0.3-0.1-0.5-0.1-0.8c0.4-3.4-1-4.8-4.1-4.6c-7.2,0.5-14.5,0.9-21.7,1.4c-0.3,0-0.7,0-1,0.1
	c-5.7,0.6-11.4,1.3-17.2,1.6c-6.2,0.5-12.4,0.6-18.5,1c-11.5,0.8-23,1.6-34.4,2.5c-4.4,0.3-8.9,0.6-13.3,0.9
	c-5.1,0.3-10.2,0.7-15.3,1c-4.9,0.3-9.9,0.5-14.9,0.8c-2.9,0.2-4.8,2.8-4.2,5.4c0.7,3.4,1.3,6.9,1.6,10.2c0.5,3.4,0.8,6.8,1.2,10.1
	c0.2,2,0.4,4.1,0.7,6.2c0.9,5.8,1.7,11.6,2.5,17.4c0.4,2.7,1.6,5.6,3.6,5.6c3.3,0.1,6.7-0.5,9.9-0.7c1.4,0,2.9-0.1,4.3-0.1
	c1.8-0.3,3.7-0.5,5.5-0.8c2-0.1,4-0.2,6-0.2c1.8,0,3.7,0.1,5.5,0.1c0.2,0.4,0.5,0.9,0.7,1.3c0,0.8,0.1,1.4,0.1,2.2
	c0.4,7.5,0.7,15.1,1.2,22.5c0.4,5.6,1.1,11.1,1.4,16.7c0.5,6.5,0.8,12.9,1.2,19.4c0,0.2,0,0.3,0,0.5c0.5,5.6,1,11.2,1.4,16.7
	c0.4,5.1,0.7,10.2,1.1,15.3c0.3,4,0.6,8,1,12c0.5,5.4,1.2,10.7,1.6,16.1c0.5,5.4,0.8,10.8,1.2,16.3c0.3,3.4,0.6,6.7,1,10
	c0.5,4.9,1,9.8,1.4,14.8c0.2,1.9,0.4,3.9,1.1,5.6c0.7,1.6,1.8,3.3,4.2,2.8c1.3,0,2.5-0.1,3.8-0.1
	C536.2,381.9,537.6,381.7,539.2,381.4z M306.7,168.3c0.9-0.1,1.8-0.1,2.7-0.2c0.8-0.2,1.6-0.3,2.4-0.5c1.2-0.1,2.2-0.2,3.4-0.3
	c0.7-0.2,1.4-0.4,2.1-0.6c0.3,0,0.6,0,0.9,0s0.7-0.1,1-0.1c1.2-0.1,2.2-0.1,3.4-0.2c1.2-0.2,2.3-0.5,3.5-0.7c0.3,0,0.6,0,0.9-0.1
	c3.4-0.3,6.8-1,10.1-0.9c4,0.2,7.8,0.9,11.7,1.7c8.1,1.7,14.7,6.3,19.7,12.5c4.7,5.9,8.7,12.4,12.9,18.7c2.2,3.2,4.4,6.3,6.7,9.5
	c3.1,4.7,6.1,9.5,9.3,14.1c0.8,1.2,1.9,2.5,3.3,1.4c0.9-0.7,1.4-2.5,1.2-3.5c-1.1-3.1-2.4-6.1-3.9-9.1c-4.7-9.6-9.4-19.1-14.4-28.5
	c-6.8-12.6-12-25.9-17.5-39c-3.1-7.4-6.2-14.8-9.8-21.9c-6.4-12.5-13.1-25-23.1-35.2c-4.7-4.9-9.6-9.7-14.8-14.2
	c-4.1-3.6-8.9-6.4-13.3-9.7c-7.7-5.7-16.1-9.9-25.4-12.5c-7.6-2.2-15.4-3.7-23.3-4c-9.3-0.3-18.6,0.6-27.9,0.9
	c-3.3,0.5-6.8,0.6-9.9,1.5c-6.1,1.8-12.1,3.9-18,6.3c-7.5,3-14.9,6.6-22.4,9.7c-12,4.8-24,9.5-36,14.3c-5.8,2.3-11.5,4.9-17.1,7.5
	c-3,1.4-3,2.7-0.8,5c2.9,3,5.6,6.1,8.5,9.1c5.1,5.5,10.2,11,15.5,16.3c4.6,4.5,9.7,8.8,14.5,13.1c9.7,8.7,19.5,17.2,31,23.5
	c9.1,4.9,18.3,9.5,27.7,13.9c3,1.4,6.6,1.8,9.8,2.7l0.2,0.1h0.2c1,0.3,2,0.6,3,0.9c4.2,0.6,8.5,1.7,12.7,1.7
	c12.7,0.2,25.6,1.2,38.3-0.6c6.3-0.9,12.6-1.4,18.9-2.2C305.2,168.7,306,168.5,306.7,168.3z M87.4,432.1c1.4-0.1,2.9-0.1,4.2-0.2
	c1.2-0.2,2.4-0.5,3.6-0.7c3.2-0.3,6.4-0.7,9.5-1c3.3-0.4,6.7-0.7,9.9-1.2c3.1-0.5,3.7-1.2,3.6-4.2c-0.2-3.2-0.5-6.4-0.8-9.6
	c-0.6-7.2-1.2-14.4-1.7-21.6c-1.3-15.2-2.5-30.3-3.7-45.5c-0.4-4.5-0.6-9.2-0.8-13.7c-0.1-3,0-5.9,0-9.3c1.4-0.2,3-0.6,4.6-0.8
	c4.2-0.5,8.5-0.8,12.6-1.3c11-1.4,22.1-2.7,33.1-4.1c2.3-0.3,3.5-1.5,3.1-3.9c-1-6.1-2-12.3-3-18.3c-0.9-5.7-1.8-11.4-2.7-17.1
	c-0.4-2.7-1.1-3.5-3.8-3.2c-4.7,0.5-9.4,1.2-14.1,1.6c-5.2,0.7-10.5,1.3-15.7,1.8c-5.6,0.7-11.2,1.4-16.9,1.9
	c-2.4,0.3-3.7-0.8-4-3.3c-1.1-9.9-2.2-19.9-3.4-29.8c-0.4-3.4-0.7-6.9-1.3-10.2c-0.4-2.6,0.2-3.5,2.8-4c9.2-1.5,18.4-3.1,27.6-4.6
	c9-1.4,18-2.9,26.9-4.3c1.6-0.3,3.3-0.6,4.9-1c2.4-0.6,3.3-1.8,3-4.4c-0.6-4.8-1.3-9.7-1.9-14.6c-0.9-5.9-1.8-11.8-2.7-17.7
	c-0.8-4.7-1.4-9.6-2.2-14.3c-0.5-3.3-1.8-3.5-4.7-3.2c-5.3,0.5-10.6,1.2-15.9,1.9c-8.6,1.2-17.1,2.3-25.7,3.5
	c-7.6,1-15.2,1.9-22.9,2.9c-4.6,0.6-9.2,1.3-13.8,1.8c-5.9,0.9-11.9,1.6-17.8,2.6c-7,1.1-14,2.3-21,3.5c-1.9,0.7-3,2-2.8,4.1
	c0.3,3.9,0.6,7.8,1.1,11.7c0.2,2.3,0.6,4.5,1,6.8c0.5,3.3,1.2,6.6,1.6,9.8c0.7,5,1.2,10,1.9,15c0.8,5.1,1.8,10.2,2.5,15.3
	c0.8,5.2,1.2,10.4,1.9,15.6c1.1,7.4,2.3,14.8,3.4,22.1c0.7,4.2,1.3,8.5,1.8,12.7c0.9,6.4,1.7,12.7,2.6,19.2c1,6.9,1.8,13.9,2.7,20.8
	c1.2,8.8,2.3,17.5,3.5,26.3c0.9,6.6,1.6,13.1,2.6,19.7c1.2,8.5,2.4,17,3.7,25.4c0.9,6.1,1.8,12.2,2.6,18.2c0.2,1.8,1.4,2.6,2.9,3
	c1.4,0.4,3,0.7,4.5,0.7c1.6,0,3.3-0.4,4.9-0.6c1.4-0.1,2.6-0.1,4-0.2C84.5,432.5,86,432.3,87.4,432.1z"/>
<path class="st3" d="M560.4,133.9c-3.6,0.3-7.1,0.7-10.7,0.9c-10.8,0.6-21.6,1.2-32.4,1.6c-11.7,0.6-23.4,1.2-34.9,1.7
	c-3,0.1-3.2-0.2-3.5-3.2c-0.3-3.4-0.6-6.7-1.1-10c-0.2-1.8-1.3-2.6-3.2-2.3c-7.8,1.1-15.7,2-23.5,3.2c-7.9,1.2-15.7,2.6-23.5,3.8
	c-5.7,0.9-11.4,1.6-17.1,2.4c-7,1-14.1,1.8-21,3c-1.9,0.3-2.9-0.3-3.7-1.8c-7.1-15.6-16.9-29.6-27.1-43.3
	c-8-10.7-16.3-21.2-26.3-30.3c-6.9-6.3-15-10.9-23.2-15.2c-7.5-4-15.3-7.2-23.5-9.4c-5.3-1.4-10.6-2.8-15.8-4.2
	c-0.4-0.1-0.8-0.4-1.2-0.7c3.9-1,7.7-1.9,11.6-2.8c4.5-1.1,9-2.1,13.5-2.9c5.7-1,11.6-1.5,17.3-2.5c15.2-2.4,30.4-1.2,45.6-1.4
	c5.4-0.1,10.9,0.2,16.4,0.7c11,1.1,22.1,2.2,33.1,3.7c4.8,0.7,9.6,2.1,14.3,3.3c5.6,1.4,11.4,2.6,16.7,4.6c6.9,2.6,13.6,5.6,20,9.3
	c6.9,4,13.7,8.4,20,13.4c7.1,5.6,13.5,12.2,20.4,18.1C505,80,512.8,86.3,520.2,93c6.4,5.9,12.4,12.4,18.5,18.5
	c7.1,7.1,14.3,14.2,21.4,21.2C560,133.2,560.2,133.6,560.4,133.9z"/>
<path class="st4" d="M134,476.9c5.8,2.3,11.7,4.5,17.5,6.9c10,4.1,20,8.1,29.9,12.2c9,3.7,17.9,7.3,26.8,11
	c8.4,3.5,16.9,6.9,25.4,10.2c9.9,4.1,19.9,8.2,29.8,12.3c8.2,3.4,16.5,6.6,24.7,9.8c9.2,3.7,18.3,7.4,27.6,11.1
	c10.9,4.3,21.7,8.7,32.6,13.1c5.8,2.3,11.6,4.7,17.4,7.1c0.4,0.2,0.6,0.5,1,0.8c-0.6,0.2-1.2,0.5-1.8,0.6c-5.3,0.4-10.5,1-15.8,1
	c-18.5,0.1-37.2,0.2-55.7-0.1c-5.4-0.1-10.8-1.4-16-2.6c-5.2-1.3-10.2-3-15.2-4.8c-6.7-2.3-13.2-4.7-19.7-7.5
	c-7.9-3.4-15.7-7-23.4-11c-9-4.6-17.7-9.7-26.3-14.9c-13.7-8.1-26.7-17.3-37.4-29.1c-7.2-8-13.8-16.7-20.7-25.1
	C134.2,477.5,134.1,477.2,134,476.9z"/>
<path class="st5" d="M135.3,126.6c1.9,1.8,4,3.6,5.9,5.4c7.1,6.7,14.3,13.2,21.7,20.2c-1.6,0.3-3.1,0.7-4.5,0.9
	c-3.9,0.5-7.7,0.8-11.7,1.2c-7.4,0.8-15,1.4-22.4,2.2c-4.3,0.4-8.8,0.9-13.1,1.3c4.3-5.6,8.7-11.3,13-16.9
	C127.8,136,131.5,131.3,135.3,126.6z"/>
<path class="st1" d="M751.9,352.9c-8.2,0.9-13.3-6.5-13.3-12.6c0.1-7.4,5.8-13.1,12.5-13c7.8,0.1,13,5.1,13.2,12.9
	C764.5,346.9,759.6,353.8,751.9,352.9z M741.3,340.1c-0.1,7.4,5,10.9,10.3,10.8c5.8,0,9.9-4,10.1-10.1c0.2-6.1-4.1-10.8-10.1-11.1
	C746,329.4,740.7,334.7,741.3,340.1z"/>
<path class="st6" d="M364.4,209.1c6.6,6.8,13.1,13.6,19.7,20.4c7.6,7.7,15.4,15.2,23.1,23c2.9,3,5.6,6.2,8.4,9.2
	c0.6,0.7,1.5,1,2.3,1.5c1.8,1.3,3.6,2.4,5.3,3.7c0.2-0.2,0.3-0.3,0.3-0.3c-0.3-5.4-0.5-10.8-1-16.2c-0.4-4.2-1.3-8.4-1.7-12.6
	c-0.5-4.4-0.7-8.9-1.1-13.4c-0.8-8-1.5-16-2.3-24c0-0.3,0-0.7-0.1-1c-0.6-4.3-1.4-8.7-1.8-13c-0.7-6.4-1.3-12.7-1.8-19.1
	c-0.3-2.8-0.5-5.7-0.7-8.6c1.2-0.1,1.9-0.1,2.6-0.2c5.9-0.4,11.9-0.7,17.8-1c8.6-0.5,17.1-1,25.7-1.4c0.7,6.4,1.4,12.6,2.1,19
	c1.1,9.2,2.2,18.2,3.4,27.4c1.2,8.6,2.4,17.2,3.5,25.9c1,7.9,1.7,15.9,2.8,23.9c0.8,6.2,1.7,12.4,2.5,18.5c0.7,4.8,1.2,9.7,1.7,14.6
	c0.9,6.9,1.8,13.8,2.7,20.7c0.7,5.8,1.4,11.6,2,17.5c0.9,8.1,1.7,16.2,2.7,24.4c1.2,10,2.3,20,3.5,30c0.3,2.3,0.5,4.6,0.8,6.9
	c0.6,4.5-1.2,5.5-5.1,6.3c-8.3,1.6-16.7,2.8-25.1,4c-1.3,0.2-3.1-0.5-4-1.4c-11.5-12.8-22.8-25.8-34.2-38.7
	c-10.2-11.6-20.4-23.3-30.5-34.8c-4.3-4.9-8.5-10-12.7-15c-0.7-0.8-1.4-1.5-2.3-1.7c-2.7-0.7-3.7,0.1-3.5,2.8
	c0.5,7.5,1.2,15.1,1.8,22.6c0.3,3.9,0.8,7.6,1.3,11.4c0.7,5.6,1.4,11.2,2.1,16.9c0.8,5.8,1.4,11.6,2.2,17.5
	c0.9,6.9,1.7,13.6,2.5,20.5c0.2,1.3,0.2,2.6,0.3,3.9c0.2,4.3-0.6,5.2-5,5.8c-7.9,1-15.9,1.9-23.8,2.8c-4.8,0.6-9.7,1.2-14.5,1.8
	c-1,0.3-2,0.5-3,0.8c-0.5,0-0.9,0-1.4,0c-0.4-4.1-0.7-8.3-1.1-12.5c-0.3-2.9-0.6-5.7-1-8.5c-0.6-3.8-1.4-7.4-1.7-11.2
	c-0.5-4.1-0.6-8.2-1.2-12.4c-1-7.3-2.2-14.7-3.2-22c-0.8-5.3-1.3-10.7-1.9-16c-1.1-9-2.2-17.9-3.4-26.8c-0.7-5.1-1.4-10.2-1.9-15.4
	c-0.6-5.3-1-10.6-1.5-16c-0.4-3.7-0.7-7.3-1.2-11c-0.5-4-1.3-7.8-1.6-11.7c-0.5-4.3-0.7-8.7-1.1-13c0-0.2,0-0.3,0-0.5
	c-0.6-5.5-1.3-10.9-1.8-16.4c-0.3-2.3,0.7-3,3-3.1c4.8-0.3,9.7-0.9,14.5-1.5c5.4-0.8,10.7-1.9,16.1-2.7c5.9-0.9,11.7-1.4,17.6-2.1
	c0.8-0.1,1.5,0.1,2.3,0.1l0,0c0.3,0.3,0.6,0.7,1,1l0,0C363.7,208.6,364,208.9,364.4,209.1z"/>
<path class="st7" d="M36.7,187c7-1.2,14-2.4,21-3.5c5.9-1,11.9-1.7,17.8-2.6c4.6-0.7,9.2-1.3,13.8-1.8c7.6-1,15.2-1.9,22.9-2.9
	c8.6-1.2,17.1-2.3,25.7-3.5c5.3-0.7,10.6-1.4,15.9-1.9c2.9-0.3,4.2,0,4.7,3.2c0.8,4.7,1.4,9.6,2.2,14.3c0.9,5.9,1.8,11.8,2.7,17.7
	c0.7,4.8,1.4,9.7,1.9,14.6c0.3,2.6-0.6,3.8-3,4.4c-1.6,0.4-3.3,0.8-4.9,1c-9,1.4-18,2.9-26.9,4.3c-9.2,1.5-18.4,3.1-27.6,4.6
	c-2.6,0.4-3.2,1.4-2.8,4c0.5,3.4,0.9,6.9,1.3,10.2c1.2,9.9,2.3,19.9,3.4,29.8c0.3,2.5,1.5,3.6,4,3.3c5.6-0.7,11.2-1.4,16.9-1.9
	c5.2-0.6,10.5-1.3,15.7-1.8c4.7-0.6,9.4-1.3,14.1-1.6c2.7-0.3,3.4,0.5,3.8,3.2c0.9,5.7,1.7,11.4,2.7,17.1c1,6.1,2,12.3,3,18.3
	c0.4,2.3-0.8,3.6-3.1,3.9c-11,1.4-22.1,2.7-33.1,4.1c-4.2,0.5-8.5,0.8-12.6,1.3c-1.6,0.2-3.2,0.6-4.6,0.8c0,3.4-0.1,6.3,0,9.3
	c0.2,4.5,0.4,9.2,0.8,13.7c1.2,15.2,2.4,30.3,3.7,45.5c0.6,7.2,1.2,14.4,1.7,21.6c0.3,3.2,0.6,6.4,0.8,9.6c0.2,3.1-0.4,3.8-3.6,4.2
	c-3.3,0.5-6.7,0.8-9.9,1.2c-3.2,0.4-6.4,0.7-9.5,1c-1.2,0.2-2.4,0.5-3.6,0.7c-1.4,0.1-2.9,0.1-4.2,0.2c-1.4,0.2-3,0.4-4.4,0.6
	c-1.4,0.1-2.6,0.1-4,0.2c-0.7-0.2-1.4-0.4-2.1-0.6c-0.4-2.7-0.8-5.4-1.3-8.1c-0.9-4.5-1.9-9.2-2.7-13.7c-1-5.8-1.5-11.7-2.5-17.5
	c-0.8-4.6-1.9-9.2-2.7-13.8c-0.7-3.5-1.1-7-1.5-10.6c-0.7-4.5-1.3-9.2-2-13.7c-0.9-5.3-1.9-10.5-2.8-15.8
	c-0.9-5.2-1.5-10.3-2.5-15.5c-0.9-4.7-1.9-9.4-2.8-14c-0.8-4.7-1.4-9.5-2-14.2c-0.5-3.2-0.9-6.5-1.4-9.7c-0.5-2.9-1.4-5.8-1.8-8.8
	c-0.7-4.1-1-8.2-1.6-12.4c-0.8-4.8-1.9-9.6-2.8-14.4c-0.6-3.5-1-6.9-1.5-10.3c-0.7-4.5-1.4-9-2.1-13.5C42,222,41,217.5,40.2,213
	c-0.7-4.2-1.3-8.4-1.7-12.5C37.8,195.9,37.3,191.5,36.7,187z"/>
<path class="st8" d="M231.6,169.1h-0.2l-0.2-0.1c-0.1-0.3-0.2-0.7-0.4-0.9c-4.3-2.6-8.8-5.1-13-7.8c-6.5-4.1-12.9-8-19.1-12.4
	c-5.6-4-11-8.2-16.3-12.5c-6.2-5-12.4-10-18.2-15.2c-4.1-3.6-7.7-7.4-11.5-11.2c-1.8-1.8-3.7-3.8-5.5-5.6
	c-4.3-4.7-8.7-9.4-13.5-14.6c2.7-1.6,4.6-2.9,6.8-4c5.9-3,11.8-6.1,17.8-8.8c7.1-3.3,14.4-6.2,21.5-9.4c4.2-1.8,8.5-3.9,12.7-5.7
	c5.4-2.3,11-4.3,16.4-6.7c6.3-2.7,12.2-6.4,19.1-7.6c0.2,0,0.4-0.5,0.6-0.7c9.3-0.4,18.6-1.2,27.9-0.9c7.8,0.3,15.6,1.7,23.3,4
	c9.3,2.7,17.7,6.9,25.4,12.5c4.4,3.3,9.2,6.1,13.3,9.7c5.2,4.4,10,9.3,14.8,14.2c9.9,10.2,16.7,22.7,23.1,35.2
	c3.7,7.1,6.8,14.6,9.8,21.9c5.5,13.1,10.7,26.4,17.5,39c5,9.4,9.7,19,14.4,28.5c1.4,3,2.9,6,3.9,9.1c0.3,1-0.3,2.8-1.2,3.5
	c-1.4,1.1-2.5-0.3-3.3-1.4c-3.1-4.6-6.2-9.4-9.3-14.1c-1-2.5-1.6-5.1-2.8-7.5c-2.4-4.5-5-9-7.6-13.5c-3.7-6.3-8-12-13.2-17
	c-5.3-5.1-11.9-7.6-19-8.9c-1.4-0.2-2.9,0.5-4.3,0.9c-3.6,0.9-7.2,1.7-10.8,2.8c-1.2,0.3-2.2,1.1-3.4,1.5c-0.3,0-0.6,0-0.9,0.1
	c-1.2,0.2-2.3,0.5-3.5,0.7c-1.2,0.1-2.2,0.1-3.4,0.2c-0.3,0-0.7,0.1-1,0.1s-0.6,0-0.9,0c-0.7,0.2-1.4,0.4-2.1,0.6
	c-1.2,0.1-2.2,0.2-3.4,0.3c-0.8,0.2-1.6,0.3-2.4,0.5c-0.9,0.1-1.8,0.1-2.7,0.1c-0.7,0.2-1.4,0.5-2.1,0.7c-6.3,0.8-12.6,1.4-18.9,2.2
	c-12.7,1.7-25.6,0.8-38.3,0.6c-4.2-0.1-8.5-1.2-12.7-1.7C233.6,169.7,232.6,169.4,231.6,169.1z M172.2,103c-0.2,0.4-0.5,0.7-0.7,1.1
	c0.7,0.4,1.4,0.8,2.1,1.2c2.8,1.6,5.6,3.4,8.3,5c4.9,3,9.8,6.1,14.9,9.1c7.3,4.4,14.7,8.8,21.9,13.3c8.3,5.2,16.3,10.8,24.6,15.7
	c6.5,3.9,13.9,5.3,21.3,5.7c8.3,0.5,16.7-0.1,24.9-1.7c5.9-1.2,12-1.6,18-2.5c1.9-0.3,3.9-0.7,5.8-1.2c2.2-0.5,4.3-1.2,6.6-1.6
	c2.3-0.6,4.6-1.1,6.9-1.6c0.4-0.1,0.6-0.8,1.1-1.4c-1.6-0.6-2.9-1-4.2-1.4c-3.6-1.1-7.1-2-10.7-3.1s-7.2-2.2-10.8-3.2
	c-4.3-1.3-8.8-2.2-13-3.6c-4.7-1.5-9.4-3.4-14-5c-6-2.2-12.2-4.2-18-6.7c-5-2.2-9.6-5.2-14.5-7.6c-6.3-3.1-12.8-5.8-19.1-9.1
	c-6.9-3.7-14.5-3.7-21.9-5c-1.2-0.2-2.5,0.7-3.9,0.9c-4.9,0.4-9.9,0.6-14.8,1.1C179.4,101.4,175.8,102.3,172.2,103z"/>
<path class="st7" d="M250.6,361.6c-0.5-1.1-0.9-2.1-1.4-3.3c-2.5,0.4-4.9,0.7-7.3,1.1c-6.8,1.1-13.5,2.3-20.4,3.4
	c-2.6,0.4-3.6,1.5-4,4.1c-0.9,6.3-1.9,12.5-2.9,18.7c-0.8,4.5-1.5,9.1-2.4,13.6c-1.2,6.1-2.2,12.3-3.5,18.3
	c-0.5,2.3-2.2,3.6-4.5,3.9c-5.4,0.7-10.8,1.2-16.2,1.8c-2.6,0.3-5.2,0.6-7.8,0.9c-1.1-0.1-2.2-0.2-3.6-0.3c0.2-4.1,0.3-8,0.6-11.9
	c0.8-9.6,1.5-19.2,2.3-28.8c0.4-4.3,0.7-8.7,1-13c0.4-5.3,0.7-10.5,1-15.8c0.5-7.6,1-15.2,1.4-22.8c0.6-8.9,1.3-17.8,1.9-26.7
	c0.3-4.6,0.7-9.4,1-14c0.3-5.1,0.7-10.2,1-15.3c0.5-7.7,1-15.4,1.4-23.3c0.6-8.7,1.3-17.3,1.9-26c0.3-4.5,0.7-9,1-13.5
	c0.1-3,0-6,0-8.9c0.5-2.1,2.2-2.3,3.9-2.4c5.4-0.5,10.9-0.9,16.3-1.2c4.4-0.3,8.8-0.4,13.2-0.8c4.6-0.4,9.2-1.1,13.8-1.5
	c2.2-0.3,3.6,0.9,4.3,2.9c2.3,6.3,4.7,12.4,6.9,18.7c3.9,10.6,7.6,21.2,11.4,31.9c3.7,10.6,7.3,21.2,10.9,31.8
	c3.9,11.1,7.7,22.3,11.6,33.4c3.9,11,7.6,22.1,11.6,33.1c3.4,9.7,6.9,19.2,10.3,28.8c2.2,6.3,4.3,12.6,6.6,19c0.7,2,1.5,4,2.3,6
	c1.5,4.4,0.1,6.8-4.5,7.3c-5.4,0.6-10.8,1.3-16.2,1.9c-4.7,0.6-9.5,1.3-14.2,1.8c-1.7,0.1-2.5-1.1-3-2.5c-1.4-4.7-2.9-9.5-4.3-14.2
	c-1.8-6.1-3.6-12.2-5.4-18.2c-1.7-5.8-3.6-11.6-5.4-17.4c-0.5-1.4-1.4-2.2-3.1-1.7C255.5,361,253,361.2,250.6,361.6z M217.6,320.1
	c-0.3,0.5-0.7,1-0.9,1.4c-1,3,1.4,4.8,2.8,6.9c0.5,0.7,1.8,1.2,2.7,1.2c1.7-0.1,3.4-0.8,5.1-1.1c4.8-1.1,9.7-2,14.6-3.2
	c0.9-0.2,2.2-1.3,2.1-1.5c-0.3-1-1.1-1.8-1.7-2.7c0.1-0.6,0.2-1.2,0.2-1.6c-0.2-0.6-0.5-1.2-0.7-1.7c-1-3-1.8-6-3-8.9
	c-2.5-6.9-5.1-13.8-7.7-20.7c-0.3-0.7-0.8-1.4-1.4-1.7c-4.6-1.9-8.2,0.4-8.7,5.4c-0.1,0.7-0.2,1.3-0.3,1.9
	C219.8,302.5,218.8,311.3,217.6,320.1z"/>
<path class="st6" d="M513.3,213.6c0-0.8-0.1-1.4-0.1-2.2c-0.2-0.4-0.5-0.9-0.7-1.3c-1.8,0-3.7-0.1-5.5-0.1c-2,0-4,0.1-6,0.2
	c-1.8,0.3-3.7,0.5-5.5,0.8c-1.4,0-2.9,0.1-4.3,0.1c-1.2-0.2-2.4-0.3-3.6-0.5c-0.4-2.1-0.9-4.2-1.2-6.5c-0.9-6.9-1.7-13.9-2.5-20.9
	c-0.3-2.3-0.6-4.7-1-7c-0.6-3.8-1.4-7.4-1.8-11.1c-0.3-2.7,0.7-3.6,3.5-3.7c1.8-0.1,3.7,0.1,5.5-0.1c6.3-0.6,12.4-1.4,18.7-1.8
	c6.9-0.5,13.9-0.7,20.8-1.1c0.2,0,0.3,0,0.5,0c9.8-0.8,19.8-1.5,29.6-2.3c1.2-0.1,2.4,0,3.6-0.2c5.3-0.6,10.7-1.4,16-1.7
	c6.9-0.5,13.8-0.7,20.8-1.1c0.3,0,0.7-0.1,1-0.2c4.3-0.4,8.8-0.9,13.1-1.3c0.7-0.1,1.4,0.3,2,0.5c0,0.3,0.1,0.5,0.1,0.8
	c0.2,0.8,0.4,1.4,0.5,2.2c0.1,1.1,0.2,2.2,0.2,3.3c0.2,1,0.4,1.9,0.6,3c0.1,1,0.1,2,0.2,3c0.2,0.8,0.4,1.5,0.6,2.2
	c0.7,5.6,1.4,11.3,2.1,16.9c0.6,4.7,1.4,9.5,1.9,14.2c0.1,1.1,0,2.1,0,3.1c-0.1,1.9-1.1,2.9-3.2,3c-7.3,0.3-14.7,0.8-22.1,1.2
	c-4.3,0.2-8.6,0.5-12.9,0.8c-3.6,0.2-4.8,1.4-4.7,4.9c0.3,9.5,0.6,18.9,1,28.4c0.2,5.4,0.6,10.7,0.9,16.1c0.4,7.7,0.7,15.3,1.1,23.1
	c0.3,5,0.7,10,1,15.1c0.7,13.9,1.3,27.7,1.8,41.6c0.2,5.5,0.3,10.9,0.5,16.4c0.3,7.3,0.5,14.8,0.9,22.1c0.2,2.6-0.9,3.7-3.4,3.9
	c-6.5,0.6-12.9,1.4-19.4,1.9c-7.8,0.8-15.5,1.4-23.4,2.1c-0.6,0.1-1.2,0-1.6,0c-1.4,0.2-3,0.5-4.4,0.7c-1.3,0-2.5,0.1-3.8,0.1
	c0-3.6,0.1-7-0.1-10.6c-0.7-9.3-1.5-18.4-2.3-27.7c-0.7-8.6-1.4-17.2-1.9-25.8c-0.4-5.7-0.7-11.3-1-17c-0.2-3-0.3-6.1-0.5-9.1
	c-0.5-6.4-1-12.7-1.4-19.1c-0.8-10.4-1.7-20.8-2.4-31.2c-0.5-7.8-0.7-15.6-1.1-23.5c0-0.2,0-0.5,0-0.7c-0.4-4.1-0.4-4.1-4.5-4.1
	C514.9,213.5,514.1,213.6,513.3,213.6z"/>
<path class="st7" d="M667.9,331.7c-2-3.1-2.4-3.1-6-2.5c-4.2,0.7-8.5,1.1-12.8,1.6c-1.8,0.3-3.8,0.4-5.3,1.1c-0.9,0.4-1.7,1.9-1.8,3
	c-1,9.4-1.8,18.7-2.7,28c-0.1,1.4-0.3,2.9-1,4.2c-0.4,0.8-1.5,1.5-2.4,1.8c-2.8,0.7-5.7,1.3-8.6,1.7c-6,1-11.9,1.8-17.9,2.7
	c-0.4,0.1-0.8,0-1.2,0c-0.8-0.1-1.5-0.2-2.7-0.4c0.2-2.6,0.5-5.1,0.6-7.6c0.4-6.8,0.7-13.4,1-20.2c0.4-8.8,0.6-17.6,1-26.4
	c0.4-9.5-0.1-18.8,0.8-28.3c1.2-12.6,0.9-25.4,1.2-38.1c0.1-5.5-0.1-10.9,0.1-16.4c0.1-4.4,2-6.1,6-6.7c4.3-0.6,8.7-1.4,13-2.2
	c4.1-0.7,8.2-1.4,12.4-2.1c5.8-0.9,11.8-1.4,17.5-2.6c4.5-1,8.9-1.9,13.5-1.8l0,0c0.2,0.4,0.3,0.7,0.5,1.1c0.1,0.4,0.1,0.8,0.2,1.2
	c0.2,0.6,0.5,1.2,0.7,1.7c0.1,0.4,0.1,0.9,0.2,1.3c0.2,0.4,0.5,0.8,0.7,1.3c2,6.4,4.1,12.8,6.1,19.2c1.8,5.9,3.7,11.8,5.5,17.7
	c1.6,5.3,3.3,10.6,4.9,15.8c2.2,7.2,4.4,14.5,6.8,21.7c1.9,6.2,4,12.4,5.9,18.5c1.6,5.2,3.2,10.5,4.7,15.7
	c1.6,5.3,3.2,10.6,4.7,15.9c0.4,1.4,0.5,2.8,0.9,4.7c-6.6,1-12.8,1.8-19.1,2.7c-0.9,0.2-1.7,0.5-2.6,0.7c-1,0.1-1.9,0.1-2.8,0.2
	c-1.9-3.5-3.8-6.9-5.7-10.3c-2.9-5.2-5.9-10.4-8.9-15.7c-1.2-2.1-2.7-2.9-5.1-2.2C669.4,332,668.6,331.8,667.9,331.7z M663.1,282
	L663.1,282c-0.8-1.5-1.6-1.4-2.5-0.1c-0.4,0.1-0.8,0.1-1.2,0.3c-7,3.4-14.5,4-22.1,3.1c-0.7-0.1-1.4,0-2.1,0.2
	c-2,0.5-2.7,1.9-1.7,3.8c0.7,1.2,1.4,2.2,2.2,3.3c0.3,1.1,0.4,2.4,1.1,3.2c1.3,1.7,2.9,3.2,4.4,4.7c4.8,4.5,11.9,5.5,17.9,2.9
	c5-2.2,7.5-9.9,7-13.9c-0.1-1.2-1.4-2.1-2.2-3.2c0-1,0-1.9-0.1-2.9C663.6,282.8,663.4,282.4,663.1,282z"/>
<path class="st9" d="M36.7,187c0.6,4.4,1.1,8.9,1.6,13.3c0.6,4.2,1.1,8.4,1.7,12.5c0.8,4.4,1.8,8.9,2.6,13.4c0.8,4.4,1.4,9,2.1,13.5
	c0.5,3.5,0.9,6.9,1.5,10.3c0.9,4.8,1.9,9.6,2.8,14.4c0.7,4.1,1,8.2,1.6,12.4c0.5,3,1.3,5.8,1.8,8.8c0.6,3.2,1,6.5,1.4,9.7
	c0.7,4.7,1.3,9.5,2,14.2c0.8,4.7,1.9,9.4,2.8,14c0.9,5.1,1.6,10.3,2.5,15.5c0.9,5.3,1.9,10.5,2.8,15.8c0.8,4.5,1.4,9.2,2,13.7
	c0.5,3.6,0.9,7.1,1.5,10.6c0.9,4.6,1.9,9.2,2.7,13.8c1,5.8,1.6,11.7,2.5,17.5c0.8,4.6,1.8,9.2,2.7,13.7c0.5,2.7,0.9,5.3,1.3,8.1
	c0.7,0.2,1.4,0.4,2.1,0.6c-1.6,0.2-3.3,0.6-4.9,0.6c-1.5,0-3.1-0.3-4.5-0.7c-1.5-0.4-2.6-1.2-2.9-3c-0.8-6.1-1.7-12.2-2.6-18.2
	c-1.3-8.5-2.5-17-3.7-25.4c-0.9-6.6-1.7-13.1-2.6-19.7c-1.2-8.8-2.3-17.5-3.5-26.3c-1-6.9-1.8-13.9-2.7-20.8
	c-0.9-6.4-1.7-12.8-2.6-19.2c-0.6-4.2-1.2-8.5-1.8-12.7c-1.2-7.3-2.3-14.8-3.4-22.1c-0.8-5.2-1.2-10.4-1.9-15.6
	c-0.8-5.1-1.7-10.2-2.5-15.3c-0.8-5-1.2-10-1.9-15c-0.5-3.3-1.1-6.6-1.6-9.8c-0.4-2.2-0.8-4.5-1-6.8c-0.4-3.9-0.8-7.8-1.1-11.7
	C33.7,189.1,34.8,187.7,36.7,187z"/>
<path class="st9" d="M672.4,220.6c-4.6-0.1-9.1,0.9-13.5,1.8c-5.8,1.3-11.7,1.7-17.5,2.6c-4.1,0.7-8.2,1.4-12.4,2.1
	c-4.3,0.8-8.7,1.5-13,2.2c-4,0.6-5.8,2.2-6,6.7c-0.2,5.5,0,10.9-0.1,16.4c-0.3,12.7,0,25.5-1.2,38.1c-0.9,9.5-0.3,18.8-0.8,28.3
	c-0.4,8.8-0.6,17.6-1,26.4c-0.3,6.8-0.6,13.4-1,20.2c-0.1,2.5-0.4,5-0.6,7.6c1.2,0.2,1.9,0.3,2.7,0.4c-2.8,1.8-4.7,1-4.9-2.4
	c-0.3-5.8-0.4-11.6-0.5-17.3c-0.1-3.1,0-6.1,0-9.2c-0.1-7.8-0.3-15.7-0.5-23.5c-0.2-9.3-0.4-18.6-0.5-27.9
	c-0.3-21.8-0.5-43.7-0.8-65.5c0-4,1.6-5.4,5.6-5.9c5.1-0.7,10.2-1.7,15.3-2.5c2.4-0.4,4.7-0.6,7.1-1c6.3-0.9,12.5-1.7,18.7-2.7
	c5.6-1,11.2-2.1,16.8-3.2c2.4-0.5,4.5,0.5,5.6,2.9C671.3,216.8,671.7,218.8,672.4,220.6z"/>
<path class="st10" d="M228.3,46.1c-0.2,0.3-0.3,0.7-0.6,0.7c-6.9,1.2-12.7,4.9-19.1,7.6c-5.4,2.3-11,4.3-16.4,6.7
	c-4.2,1.8-8.5,3.9-12.7,5.7c-7.1,3.1-14.4,6.1-21.5,9.4c-6,2.8-11.9,5.8-17.8,8.8c-2.1,1.1-4.1,2.4-6.8,4c4.8,5.2,9.2,9.8,13.5,14.6
	c1.8,1.9,3.7,3.8,5.5,5.6c3.8,3.8,7.5,7.6,11.5,11.2c6,5.2,12.1,10.2,18.2,15.2c5.3,4.2,10.7,8.6,16.3,12.4
	c6.2,4.3,12.6,8.4,19.1,12.4c4.2,2.7,8.7,5.2,13,7.8c0.2,0.1,0.3,0.6,0.4,0.9c-3.3-0.9-6.9-1.3-9.8-2.7c-9.4-4.4-18.6-9-27.7-13.9
	c-11.5-6.3-21.2-14.9-31-23.5c-4.9-4.3-9.8-8.6-14.5-13.1c-5.3-5.2-10.4-10.8-15.5-16.3c-2.8-3-5.6-6.1-8.5-9.1
	c-2.2-2.3-2.2-3.6,0.8-5c5.6-2.7,11.3-5.2,17.1-7.5c12-4.8,24-9.5,36-14.3c7.5-3.1,14.9-6.6,22.4-9.7c5.9-2.3,11.9-4.4,18-6.3
	C221.6,46.7,225,46.6,228.3,46.1z"/>
<path class="st9" d="M362.5,207.2c-0.8,0-1.5-0.2-2.3-0.1c-5.9,0.7-11.8,1.3-17.6,2.1c-5.4,0.8-10.7,1.9-16.1,2.7
	c-4.8,0.7-9.7,1.3-14.5,1.5c-2.3,0.1-3.3,0.9-3,3.1c0.6,5.5,1.3,10.9,1.8,16.4c0,0.2,0,0.3,0,0.5c0.4,4.3,0.6,8.7,1.1,13
	c0.4,4,1.2,7.8,1.6,11.7c0.5,3.7,0.8,7.3,1.2,11c0.5,5.3,1,10.6,1.5,16c0.6,5.1,1.3,10.3,1.9,15.4c1.2,9,2.2,17.9,3.4,26.8
	c0.7,5.3,1.3,10.7,1.9,16c1.1,7.3,2.2,14.7,3.2,22c0.6,4.1,0.6,8.2,1.2,12.4c0.5,3.8,1.3,7.4,1.7,11.2c0.4,2.8,0.8,5.7,1,8.5
	c0.4,4.1,0.8,8.3,1.1,12.5c-2.4,0.1-3.6-1.1-4-3.4c-1.1-7.6-2.2-15.2-3.3-22.7c-0.5-3.2-0.8-6.4-1.2-9.6c-0.6-4.2-1.2-8.5-1.6-12.7
	c-0.4-2.9-0.7-5.9-1-8.8c-0.6-6.3-1.1-12.5-1.7-18.9c-0.6-5.4-1.3-10.8-1.9-16.1c-0.9-6.6-1.7-13.2-2.7-19.8
	c-0.8-5.5-1.6-11-2.4-16.6c-0.5-3.2-0.7-6.5-1.1-9.7c-0.7-5.7-1.4-11.4-2.1-17.1c-0.5-3.5-0.9-6.9-1.4-10.5
	c-0.6-4.2-1.2-8.3-1.7-12.4c-0.3-2.5-0.7-5-1-7.5c-0.4-4.2-0.8-8.6-1.1-12.8c-0.1-2.1,1.4-3.6,3.4-3.8c7.2-0.9,14.5-1.6,21.6-2.6
	c5.1-0.7,10.1-1.9,15.2-2.5c6.2-0.7,12.4-0.5,17.6,3.7C361.9,206.3,362.2,206.8,362.5,207.2z"/>
<path class="st9" d="M616.4,152.2c-0.7-0.2-1.4-0.5-2-0.5c-4.3,0.4-8.8,0.8-13.1,1.3c-0.3,0-0.7,0.1-1,0.2
	c-6.9,0.4-13.9,0.6-20.8,1.1c-5.4,0.4-10.7,1.2-16,1.7c-1.2,0.1-2.4,0.1-3.6,0.2c-9.8,0.8-19.8,1.5-29.6,2.3c-0.2,0-0.3,0-0.5,0
	c-6.9,0.3-13.9,0.6-20.8,1.1c-6.3,0.5-12.4,1.3-18.7,1.8c-1.8,0.2-3.7,0-5.5,0.1c-2.8,0.1-3.8,1-3.5,3.7c0.4,3.8,1.3,7.4,1.8,11.1
	c0.4,2.3,0.7,4.7,1,7c0.9,6.9,1.6,14,2.5,20.9c0.3,2.2,0.8,4.3,1.2,6.5c1.3,0.2,2.4,0.3,3.6,0.5c-3.3,0.3-6.7,0.8-9.9,0.7
	c-1.9-0.1-3.3-2.9-3.6-5.6c-0.8-5.8-1.7-11.6-2.5-17.4c-0.3-2-0.5-4.2-0.7-6.2c-0.4-3.4-0.7-6.8-1.2-10.1c-0.5-3.5-1-6.9-1.6-10.2
	c-0.6-2.6,1.4-5.2,4.2-5.4c4.9-0.3,9.9-0.5,14.9-0.8c5.1-0.3,10.2-0.7,15.3-1c4.4-0.3,8.9-0.6,13.3-0.9c11.5-0.9,23-1.7,34.4-2.5
	c6.2-0.4,12.4-0.5,18.5-1c5.7-0.4,11.4-1.1,17.2-1.6c0.3,0,0.7,0,1-0.1c7.2-0.5,14.5-0.9,21.7-1.4
	C615.4,147.4,616.7,148.8,616.4,152.2z"/>
<path class="st11" d="M459,156.1c-8.6,0.5-17.1,1-25.7,1.4c-5.9,0.3-11.9,0.7-17.8,1c-0.7,0-1.4,0.1-2.6,0.2c0.3,3,0.5,5.8,0.7,8.6
	c0.6,6.4,1.2,12.7,1.8,19.1c0.5,4.3,1.2,8.7,1.8,13c0,0.3,0,0.7,0.1,1c0.8,8,1.6,16,2.3,24c0.4,4.4,0.6,9,1.1,13.4
	c0.5,4.2,1.4,8.4,1.7,12.6c0.5,5.4,0.7,10.8,1,16.2c0,0-0.1,0.1-0.3,0.3c-1.7-1.2-3.6-2.4-5.3-3.7c0-2.3,0.1-4.7,0.1-7
	c0-1.4-0.4-2.7-0.6-4c-0.6-3.7-1.2-7.2-1.7-10.9c-0.4-2.4-0.7-4.9-1-7.3c-0.6-5.1-1.2-10.3-1.8-15.4c-0.8-5.5-1.7-10.9-2.6-16.3
	c-0.4-2.4-0.7-4.8-1-7.3c-0.9-7.5-1.7-15.1-2.7-22.6c-0.6-4.7-1.4-9.5-1.8-14.2c-0.3-2.9,0.5-3.5,3.5-3.9c5.2-0.8,10.3-1.7,15.5-2.4
	c5.2-0.8,10.4-1.3,15.6-1.9c3.2-0.4,6.4-1.1,9.6-1.4c2.4-0.3,4.8-0.5,7.1-0.3c1.8,0.2,2.6,1.9,2.7,3.7
	C459.1,153.2,459,154.6,459,156.1z"/>
<path class="st9" d="M513.3,213.6c0.8,0,1.6-0.1,2.4-0.1c4.2-0.1,4.2-0.1,4.5,4.1c0,0.2,0,0.5,0,0.7c0.3,7.8,0.6,15.6,1.1,23.5
	c0.7,10.4,1.5,20.8,2.4,31.2c0.5,6.4,1,12.7,1.4,19.1c0.2,3,0.4,6.1,0.5,9.1c0.3,5.7,0.6,11.3,1,17c0.6,8.6,1.3,17.2,1.9,25.8
	c0.8,9.3,1.6,18.4,2.3,27.7c0.3,3.5,0.1,7,0.1,10.6c-2.3,0.5-3.5-1.2-4.1-2.8c-0.7-1.7-0.9-3.7-1.1-5.6c-0.6-4.9-1-9.8-1.4-14.8
	c-0.3-3.4-0.7-6.7-1-10c-0.4-5.4-0.7-10.9-1.2-16.3s-1.2-10.7-1.6-16.1c-0.4-4-0.7-8-1-12c-0.4-5.1-0.7-10.2-1.1-15.3
	c-0.4-5.6-1-11.2-1.4-16.7c0-0.2,0-0.3,0-0.5c-0.4-6.5-0.7-12.9-1.2-19.4c-0.4-5.6-1.1-11.1-1.4-16.7
	C514,228.6,513.7,221.1,513.3,213.6z"/>
<path class="st9" d="M191.1,203.7c0,3,0.1,6,0,8.9c-0.2,4.5-0.6,9-1,13.5c-0.7,8.7-1.4,17.3-1.9,26c-0.6,7.7-1,15.4-1.4,23.3
	c-0.3,5.1-0.7,10.2-1,15.3c-0.3,4.6-0.6,9.4-1,14c-0.7,8.9-1.4,17.8-1.9,26.7c-0.5,7.6-1,15.2-1.4,22.8c-0.3,5.3-0.7,10.5-1,15.8
	c-0.3,4.3-0.6,8.7-1,13c-0.8,9.6-1.6,19.2-2.3,28.8c-0.3,3.9-0.4,7.8-0.6,11.9c1.4,0.1,2.5,0.2,3.6,0.3c-1.8,1.1-3.6,1.6-5.4,0
	c-0.3-0.5-0.7-0.9-1-1.4c-0.2,0.4-0.3,0.8-0.5,1.2c-0.2,0-0.3,0-0.5-0.1c-1.3-0.7-3.5-1.2-3.7-2.1c-0.4-2.4,0-4.9,0.2-7.3
	c0.1-1,0.4-1.8,0.5-2.8c0.6-5.5,1.1-10.9,1.6-16.4c0.4-3.9,0.6-7.8,1-11.7c0.6-5.3,1.2-10.5,1.7-15.8c0-0.3,0-0.7,0-1
	c0.9-8.7,1.6-17.3,2.5-26c0.1-1.4,0.2-2.7,0.3-4.1c0.6-0.2,1.1-0.5,1.6-0.7c-0.1-0.2-0.2-0.4-0.4-0.6c-0.4,0.3-0.8,0.6-1.3,0.9
	c0.5-4.4,1-8.8,1.4-13.2c0-0.4,0.2-0.8,0.2-1.2c0.3-4.7,0.6-9.6,1.1-14.3c0.7-6.9,1.6-13.9,2.4-20.9c0.4-3.8,0.6-7.5,1-11.2
	c0.6-5,1.3-10,1.8-15.1c0.4-3.2,0.6-6.4,1-9.6c0.9-8.2,1.7-16.3,2.6-24.5c0.4-4.1,0.6-8.1,1-12.2c0.3-3.1,0.6-6.2,1-9.3
	C190.4,204.4,190.9,204.1,191.1,203.7z M179.7,324.7c-0.3,0-0.7,0.1-1,0.1c0.1,0.7,0.2,1.4,0.3,2c0.3,0,0.6,0,0.9-0.1
	C179.8,326,179.7,325.3,179.7,324.7z M182.9,282.7c0.2,0.1,0.3,0.2,0.5,0.3c0.2-0.4,0.5-0.8,0.7-1.2c-0.3-0.2-0.6-0.4-0.9-0.6
	C183.2,281.7,183.1,282.2,182.9,282.7z M173,389.4c-0.3,0.4-0.6,0.6-0.6,0.9c0,0.2,0.3,0.5,0.5,0.7c0.2-0.2,0.6-0.4,0.7-0.7
	C173.7,390.1,173.3,389.8,173,389.4z M184.1,273c0.2,0,0.4,0,0.7,0c-0.1-0.5-0.2-1-0.2-1.4c-0.1,0-0.3,0-0.4,0.1
	C184.1,272.2,184.1,272.6,184.1,273z"/>
<path class="st11" d="M250.6,361.6c2.4-0.4,4.9-0.7,7.2-1.3c1.7-0.5,2.7,0.4,3.1,1.7c1.8,5.8,3.7,11.6,5.4,17.4
	c1.8,6.1,3.6,12.2,5.4,18.2c1.4,4.7,2.9,9.5,4.3,14.2c0.5,1.4,1.2,2.6,3,2.5c-4,1.9-8.8,0.6-10-3.2c-2.2-6.9-5.2-13.7-7.8-20.6
	c-3-8-6-16-9-24C251.8,364.9,251.2,363.3,250.6,361.6z"/>
<path class="st10" d="M326.7,165.7c1.2-0.6,2.2-1.3,3.4-1.5c3.6-1,7.2-1.8,10.8-2.8c1.4-0.4,3-1.1,4.3-0.9c7.1,1.3,13.6,3.8,19,8.9
	c5.2,5,9.7,10.7,13.2,17c2.6,4.4,5.2,8.9,7.6,13.5c1.3,2.3,1.9,5,2.8,7.5c-2.2-3.2-4.5-6.3-6.7-9.5c-4.3-6.3-8.2-12.8-12.9-18.7
	c-5-6.3-11.6-10.8-19.7-12.5c-3.9-0.9-7.8-1.5-11.7-1.7C333.5,164.8,330.1,165.4,326.7,165.7z"/>
<path class="st12" d="M667.9,331.7c0.7,0.1,1.4,0.4,2,0.2c2.4-0.7,4,0.2,5.1,2.2c2.9,5.2,5.9,10.4,8.9,15.7
	c1.9,3.5,3.8,6.9,5.7,10.3c-3.4,1.8-8.3,0.4-10-3.3c-4-8.2-7.7-16.4-11.6-24.7C667.9,332,667.9,331.8,667.9,331.7z"/>
<path class="st9" d="M495.6,210.9c1.8-0.3,3.7-0.5,5.5-0.8C499.2,210.4,497.4,210.7,495.6,210.9z"/>
<path class="st9" d="M534.6,382.2c1.4-0.2,3-0.5,4.4-0.7C537.6,381.7,536.2,381.9,534.6,382.2z"/>
<path class="st9" d="M83,432.7c1.4-0.2,3-0.4,4.4-0.6C86,432.3,84.5,432.5,83,432.7z"/>
<path class="st9" d="M91.6,431.9c1.2-0.2,2.4-0.5,3.6-0.7C94.1,431.4,92.9,431.7,91.6,431.9z"/>
<path class="st10" d="M322.4,166.5c1.2-0.2,2.3-0.5,3.5-0.7C324.7,166,323.6,166.3,322.4,166.5z"/>
<path class="st9" d="M332.9,409.7c1-0.3,2-0.5,3-0.8C335,409.2,334,409.4,332.9,409.7z"/>
<path class="st9" d="M617.8,161.5c-0.2-1-0.4-1.9-0.6-3C617.4,159.4,617.6,160.4,617.8,161.5z"/>
<path class="st10" d="M231.6,169.1c1,0.3,2,0.6,3,0.9C233.6,169.7,232.6,169.4,231.6,169.1z"/>
<path class="st10" d="M309.4,168.1c0.8-0.2,1.6-0.3,2.4-0.5C311,167.8,310.1,167.9,309.4,168.1z"/>
<path class="st12" d="M692.4,360c0.9-0.2,1.7-0.5,2.6-0.7C694.2,359.5,693.3,359.7,692.4,360z"/>
<path class="st9" d="M618.6,166.7c-0.2-0.8-0.4-1.5-0.6-2.2C618.2,165.2,618.4,165.9,618.6,166.7z"/>
<path class="st12" d="M173.3,423.8c0.2-0.4,0.3-0.8,0.5-1.2c0.3,0.5,0.7,0.9,1,1.4C174.3,423.9,173.8,423.8,173.3,423.8z"/>
<path class="st10" d="M315.2,167.4c0.7-0.2,1.4-0.4,2.1-0.6C316.5,167,315.8,167.2,315.2,167.4z"/>
<path class="st10" d="M304.6,169c0.7-0.2,1.4-0.5,2.1-0.7C306,168.5,305.2,168.7,304.6,169z"/>
<path class="st9" d="M617,155.2c-0.2-0.8-0.4-1.4-0.5-2.2C616.6,153.7,616.8,154.4,617,155.2z"/>
<path class="st12" d="M177.1,336.2c0.4-0.3,0.8-0.6,1.3-0.9c0.1,0.2,0.2,0.4,0.4,0.6c-0.6,0.2-1.1,0.5-1.6,0.7
	C176.9,336.3,177,336.3,177.1,336.2z"/>
<path class="st9" d="M673.7,224.6c-0.2-0.6-0.5-1.2-0.7-1.7C673.2,223.4,673.5,224,673.7,224.6z"/>
<path class="st9" d="M363.3,208.2c-0.3-0.3-0.6-0.7-1-1C362.7,207.6,363,207.9,363.3,208.2z"/>
<path class="st9" d="M364.4,209.1c-0.3-0.3-0.7-0.6-1-1C363.7,208.6,364,208.9,364.4,209.1z"/>
<path class="st9" d="M512.5,210.1c0.2,0.4,0.5,0.9,0.7,1.3C513,211,512.7,210.5,512.5,210.1z"/>
<path class="st9" d="M672.8,221.7c-0.2-0.4-0.3-0.7-0.5-1.1C672.5,221,672.6,221.3,672.8,221.7z"/>
<path class="st10" d="M318.1,166.7c0.3,0,0.7-0.1,1-0.1C318.7,166.7,318.4,166.7,318.1,166.7z"/>
<path class="st9" d="M674.6,227c-0.2-0.4-0.5-0.8-0.7-1.3C674.1,226.2,674.3,226.6,674.6,227z"/>
<path class="st13" d="M172.2,103c3.6-0.7,7.1-1.4,10.8-1.8c4.9-0.5,9.8-0.7,14.8-1.1c1.3-0.1,2.7-1.1,3.9-0.9c7.3,1.4,15,1.4,21.9,5
	c6.2,3.3,12.7,6,19.1,9.1c4.9,2.4,9.5,5.5,14.5,7.6c5.9,2.5,12,4.4,18,6.7c4.6,1.7,9.3,3.6,14,5c4.2,1.4,8.7,2.4,13,3.6
	c3.6,1.1,7.2,2.1,10.8,3.2c3.6,1.1,7.1,2,10.7,3.1c1.4,0.4,2.6,0.9,4.2,1.4c-0.5,0.6-0.7,1.3-1.1,1.4c-2.3,0.6-4.6,1.1-6.9,1.6
	c-2.2,0.6-4.3,1.2-6.6,1.6c-1.9,0.5-3.9,0.9-5.8,1.2c-6,0.9-12.1,1.4-18,2.5c-8.3,1.6-16.6,2.2-24.9,1.7c-7.4-0.4-14.9-1.9-21.3-5.7
	c-8.4-4.9-16.4-10.6-24.6-15.7c-7.2-4.5-14.6-8.9-21.9-13.3c-4.9-3-9.8-6.1-14.9-9.1c-2.8-1.6-5.5-3.4-8.3-5
	c-0.7-0.4-1.4-0.8-2.1-1.2C171.8,103.7,172,103.3,172.2,103z"/>
<path class="st14" d="M242.6,319.5c-0.1,0.6-0.2,1.2-0.2,1.6c-5.3,0.8-10.7,1.4-16,2.2c-2.8,0.4-5.7,0.8-8.7,1.1c0-1.5,0-2.9,0-4.2
	c1.1-8.8,2.1-17.6,3.3-26.4c0.1-0.7,0.2-1.3,0.3-1.9c0.4-5,4.1-7.3,8.7-5.4c0.6,0.3,1.2,1.1,1.4,1.7c2.6,6.9,5.2,13.7,7.7,20.7
	c1.1,2.9,1.9,5.9,3,8.9C242.1,318.3,242.3,318.9,242.6,319.5z"/>
<path class="st12" d="M217.6,320.1c0,1.4,0,2.7,0,4.2c3-0.4,5.8-0.7,8.7-1.1c5.3-0.7,10.7-1.4,16-2.2c0.6,0.9,1.4,1.7,1.7,2.7
	c0.1,0.3-1.3,1.4-2.1,1.5c-4.8,1.2-9.7,2.1-14.6,3.2c-1.7,0.4-3.4,1-5.1,1.1c-0.9,0.1-2.3-0.4-2.7-1.2c-1.4-2.1-3.8-3.9-2.8-6.9
	C216.9,321.1,217.3,320.6,217.6,320.1z"/>
<path class="st12" d="M242.6,319.5c-0.2-0.6-0.5-1.2-0.7-1.7C242.1,318.3,242.3,318.9,242.6,319.5z"/>
<path class="st14" d="M663.9,283.3c0,1,0,1.9,0.1,2.9c-0.2,0.5-0.6,0.9-0.7,1.4c-2.5,9.5-10.4,14.6-20,9.7c-2.6-1.4-5-3.2-7.5-4.7
	c-0.8-1.1-1.5-2.1-2.2-3.3c-1-1.8-0.3-3.3,1.7-3.8c0.7-0.2,1.4-0.2,2.1-0.2c7.6,1,15.1,0.3,22.1-3.1c0.4-0.2,0.8-0.2,1.2-0.3
	c0.9,0,1.6,0.1,2.5,0.1l0,0C663.4,282.4,663.6,282.8,663.9,283.3z"/>
<path class="st12" d="M635.8,292.4c2.5,1.5,4.9,3.4,7.5,4.7c9.6,4.9,17.5-0.2,20-9.7c0.1-0.5,0.5-0.9,0.7-1.4c0.8,1.1,2.1,2,2.2,3.2
	c0.5,4-2,11.7-7,13.9c-6,2.6-13,1.6-17.9-2.9c-1.5-1.4-3.1-3-4.4-4.7C636.2,294.8,636.1,293.5,635.8,292.4z"/>
<path class="st12" d="M663.1,281.9c-0.9,0-1.6-0.1-2.5-0.1C661.5,280.6,662.3,280.5,663.1,281.9z"/>
<path class="st12" d="M663.9,283.3c-0.2-0.4-0.5-0.9-0.7-1.3C663.4,282.4,663.6,282.8,663.9,283.3z"/>
<path class="st12" d="M179.7,324.7c0,0.7,0.1,1.4,0.1,2.1c-0.3,0-0.6,0-0.9,0.1c-0.1-0.7-0.2-1.4-0.3-2
	C179,324.8,179.4,324.7,179.7,324.7z"/>
<path class="st12" d="M182.9,282.7c0.1-0.5,0.2-1,0.3-1.4c0.3,0.2,0.6,0.4,0.9,0.6c-0.2,0.4-0.5,0.8-0.7,1.2
	C183.3,282.9,183.1,282.8,182.9,282.7z"/>
<path class="st12" d="M173,389.4c0.3,0.4,0.7,0.7,0.6,0.8c-0.1,0.3-0.5,0.5-0.7,0.7c-0.2-0.2-0.5-0.4-0.5-0.7
	C172.4,390.1,172.7,389.8,173,389.4z"/>
<path class="st12" d="M184.1,273c0-0.5,0-1,0-1.4c0.1,0,0.3,0,0.4-0.1c0.1,0.5,0.2,1,0.2,1.4C184.6,273,184.4,273,184.1,273z"/>
<path class="st1" d="M754.8,341.8c1,1.6,1.8,3,2.8,4.5c-2.4,0.9-3.9,0.4-4.9-1.5c-0.6-1.1-1.6-1.8-2.9-3.2c-0.2,2.2-0.3,3.5-0.4,4.8
	c-3.2,0.6-3.6,0.4-3.6-2.6c0-2.5,0.1-5,0-7.4c-0.1-2.1,1-3.1,3.1-3c1.4,0.1,3-0.3,4.3,0.1c1.4,0.5,3.3,1.4,4,2.5
	c0.9,1.5,0.6,3.6-1.4,4.8C755.4,341.1,755.1,341.4,754.8,341.8z M749.2,337.2c0,0.4-0.1,0.8-0.1,1.1c0.7,0.5,1.4,1.4,1.9,1.4
	c1-0.1,2.4-0.6,2.7-1.4c0.6-1.4-0.7-2.2-2-2.2C750.9,336.3,750,336.9,749.2,337.2z"/>
</svg>
