<svg id="Calque_1" data-name="Calque 1" xmlns="http://www.w3.org/2000/svg" viewBox="0 0 330.41 30.07">
  <defs>
    <style>
      .cls-1 {
        fill: #fff;
      }
    </style>
  </defs>
  <title>Plan de travail 1</title>
  <path id="path34_fill" data-name="path34 fill" class="cls-1" d="M.89,28.46H4.71c.26,0,.39-.09.39-.28L5.18,27q0-5.46,0-6.78c.05-1.56.07-2.68.07-3.36,0-.07,0-.11.12-.11h.12a.24.24,0,0,1,.27.11q4.05,6.25,6.36,9.64a.75.75,0,0,0,.47.27l.81,0c.39,0,.72,0,1,0l.51,0a.49.49,0,0,0,.39-.47q.08-1.8.07-24.57a.45.45,0,0,0-.07-.31.66.66,0,0,0-.39-.08,36.2,36.2,0,0,0-4.22.08c-.15,0-.23.09-.23.27V3.38c0,.63,0,1.21,0,1.76q0,1.71.12,8.85s0,.09-.12.12a.09.09,0,0,1-.12,0A12.61,12.61,0,0,1,9.5,12.7c-.39-.72-.83-1.57-1.32-2.53L6.81,7.4C6.4,6.51,6,5.7,5.64,4.94L5.06,3.73A1.16,1.16,0,0,0,4,3H.69a.41.41,0,0,0-.47.47v12.2q0,10.62.08,12.17a1.84,1.84,0,0,0,0,.55A1,1,0,0,0,.89,28.46ZM31,.51l4.45,3.78-.12,21.65a5.47,5.47,0,0,1-.66,1.6c-.44.9-.78,1.37-1,1.4L21.55,29c-.16-.08-.69-.38-1.6-.9a8.37,8.37,0,0,1-1.37-.85v-1c0-.34,0-.7,0-1.09l0-21.68L20.84.27ZM30.13,22l.11-14.71-.86-.89L24.31,6.2l-.42.43-.08,15.79.51.51,4.91.27ZM38.58,1.25a.7.7,0,0,1,.07-.31c.08-.13.16-.18.24-.16L44,1.06c.23.05.35.17.35.35l.5,22.07.24.51,6.12-.31c.21,0,.31-.12.31-.35l.2-21.84q0-.15.27-.27a1.2,1.2,0,0,1,.47-.12A23.64,23.64,0,0,1,57.41.87q.47.19.12,28.12a.31.31,0,0,1-.35.35H52.77a.36.36,0,0,1-.31-.16l-.7-1c-.08-.06-.22-.06-.43,0a1.23,1.23,0,0,0-.43.19L49,29.69a.35.35,0,0,1-.19,0h-6.4a1.12,1.12,0,0,1-.7-.27L39.2,26.76a.35.35,0,0,1-.12-.24Q38.66,6.79,38.58,1.25ZM59.73,3.6l5.61-.39c.11,0,.21.21.31.63l1.91,17.31a.36.36,0,0,0,.16.28.48.48,0,0,0,.31,0h.31l4-20.09,5.23,0c.08,0,.11.17.11.43a1.23,1.23,0,0,1-.07.5L71.39,28.57H63.9c-.21,0-.31-.09-.31-.27Q59.72,4.43,59.73,3.6ZM93.08,24.17c.13,2.42.2,3.85.2,4.29a.44.44,0,0,1-.43.51H89.22c-1.89,0-3.32,0-4.29,0-1.35.05-2.57.08-3.66.08a3.11,3.11,0,0,1-.86-.16s-.1-.13-.16-.31q0-.86-.31-14.16T79.71.84c0-.29.2-.45.62-.51Q83.8.06,92.23.07c.28,0,.42.15.42.46l-.07,4.33c0,.29-.16.45-.31.47l-3.44.23-3.12.2s-.06,0-.11.15c-.06,3.46,0,5.75,0,6.87,0,.28.15.43.46.43l4.53-.12c.1,0,.18,0,.23.2s0,.61,0,1.28.1,1.32.16,1.91l.07.9c0,.21,0,.34-.11.39a.62.62,0,0,1-.39.08l-2.69,0-2.23,0a.13.13,0,0,0-.15.15c0,1.64,0,3.54,0,5.7l.66,0,1.64,0,2.92-.08c.89,0,1.55,0,2,0a.23.23,0,0,1,.2.12,1.27,1.27,0,0,1,.12.23Zm2.82,3.74c-.13-.05-.19-.11-.19-.19L95.59.42c0-.21.12-.31.35-.31L101,.69q0,20.76,0,21.81c0,.1,0,.15.16.15h7.21l.12,4.84a.39.39,0,0,1-.16.35.27.27,0,0,1-.19.08Zm16.18.67-1.29-.11c-.13-.06-.19-.12-.19-.2l-.12-27.06c0-.21.12-.32.35-.32h.43a1.83,1.83,0,0,1,.35,0,1.91,1.91,0,0,1,.43,0l1,0L114.65.7l.71,0a.39.39,0,0,1,.35.2.88.88,0,0,1,.19.39v.23q0,20.52,0,21.57c0,.1,0,.15.16.15h6.59c.1,0,.17,0,.19.11a.41.41,0,0,1,.16.36l.31,3.54.08.82a.38.38,0,0,1-.16.35.22.22,0,0,1-.19.08c-.7,0-2.54.05-5.5.08Zm26.67-4.39c.13,2.42.19,3.85.19,4.29a.44.44,0,0,1-.42.51h-3.63c-1.9,0-3.33,0-4.29,0-1.35.05-2.58.08-3.67.08a3.17,3.17,0,0,1-.86-.16s-.1-.13-.15-.31q0-.86-.31-14.16T125.37.86q0-.42.63-.51,3.47-.27,11.89-.26c.29,0,.43.15.43.47l-.08,4.32c-.05.29-.15.45-.31.47-.31,0-1.46.11-3.43.23l-3.12.2s-.07,0-.12.15q-.07,5.19,0,6.87c0,.28.16.43.47.43l4.52-.12c.11,0,.18,0,.24.2s0,.61,0,1.28.1,1.32.15,1.92l.08.89q0,.32-.12.39a.62.62,0,0,1-.39.08l-2.69,0-2.22,0c-.11,0-.16.05-.16.15,0,1.64,0,3.54,0,5.7l.67,0,1.63,0,2.93-.08c.88,0,1.55,0,2,0a.22.22,0,0,1,.19.12.85.85,0,0,1,.12.23ZM164.64.06c.11,0,.16,0,.16.12l-.08,5.11a.17.17,0,0,1-.19.19l-8.35.23c-.36,0-.55,0-.55.12l.08,16.65c0,.13.15.25.43.35a3.17,3.17,0,0,0,.74.12l4.92.12.08-6.32-2.7-.08a.93.93,0,0,1-.39-.12c-.13-.07-.19-.15-.19-.23l.39-3.43a.62.62,0,0,1,.12-.63l.23-.23,6.86.12q.39.07.39.66l0,15.29-15.25.66-1.1-1.41a.11.11,0,0,0,0-.07v-.12l-.32-10.77.24-14a1.33,1.33,0,0,1,.15-.81L151.73.41Zm22.3,27.54a.67.67,0,0,1-.07.28,1.23,1.23,0,0,1-.32.43.62.62,0,0,1-.58.23l-3.86,0a1,1,0,0,1-.55-.12,2,2,0,0,1-.23-.66L180,21.52a1.43,1.43,0,0,0-.08-.28c0-.07-.05-.11-.15-.11-.34,0-1,0-2.11,0l-2.07,0,0,0c-.05,0-.07.06-.07.08-.91,3.46-1.62,6.25-2.11,8.39a.49.49,0,0,1-.51.35h-3.47a2.58,2.58,0,0,1-.86-.39.17.17,0,0,1-.07-.16l1.6-7.88q1.08-5.22,1.67-7.84l1.76-8L174.35,2c.07-.33.14-.52.19-.54a2.11,2.11,0,0,1,.7-.12c1.07-.05,2.62-.05,4.64,0,.6,0,.93.15,1,.43l3,12.33,1.64,7.41ZM176,16.45l2.92-.12c.42,0,.62-.06.62-.12l-.93-4.56-.08-.23a.31.31,0,0,0-.31-.24h-.7l-.36,0Zm27.58-1.32.08,13.57c0,.19.19.28.58.28l4.49-.08.11-7.72L209,3c0-.19-.16-.28-.47-.28l-5,.31a.24.24,0,0,0-.2.12l-4.4,9.32-5.11-9.6-.7-.47-3.87.24a.54.54,0,0,0-.54.58V9.82l.19,18.92h4.8c.18,0,.27-.11.27-.16l0-14.08H194l3.4,6.79a.79.79,0,0,0,.58.16L199.9,21ZM226.8,14l.08,12c0,.19.19.28.58.28l4.49-.08.31-24.76c0-.18-.16-.28-.47-.28l-5,.31a.18.18,0,0,0-.2.12l-4.41,10.88L217.2.2,212.64,0a.55.55,0,0,0-.55.58l.08,28H217q.27-.07.27-.15l0-15.06h.08l3.39,8,2.5-.54Zm21.67,10.27c.13,2.42.19,3.85.19,4.29a.44.44,0,0,1-.42.51h-3.51c-1.8,0-3.18,0-4.14,0-1.35.05-2.57.08-3.66.08a3.11,3.11,0,0,1-.86-.16s-.11-.13-.16-.31q0-.9-.31-13.61t-.24-13q0-.42.63-.51c2.31-.18,6.19-.27,11.62-.26.29,0,.43.15.43.47L248,6.1c-.05.29-.15.45-.31.47-.31,0-1.4.11-3.28.23l-3,.2s-.06,0-.12.15c0,2.19,0,3.7,0,4.53,0,.28.16.43.47.43L246.4,12c.11,0,.18,0,.24.2s0,.65,0,1.32,0,1.28,0,1.88l0,.89q0,.31-.12.39a.62.62,0,0,1-.39.08l-2.57,0-2.07,0a.13.13,0,0,0-.15.15c0,2.42,0,4.71,0,6.87l.66,0,1.56,0,2.81-.08c.86,0,1.49,0,1.91,0a.22.22,0,0,1,.19.12.85.85,0,0,1,.12.23Zm28.43,3.87-.11-5.61c0-.24-.13-.35-.39-.35l-10,.46.08-2.15a.18.18,0,0,1,.16-.19l8.27-4.64c.1,0,.18-.13.23-.31l.15-11.74-1.67-2.46-13.26.31c-.34,0-.6,0-.78,0s-.16.05-.16.15c0,1,0,1.86.08,2.62l.12,3.35a.24.24,0,0,0,.27.27h8.74c.23.1.35.22.35.35v3.31c0,.06-.06.13-.16.24l-3.94,2.14Q261,16,261,16.06a.69.69,0,0,0-.5.54s0,.08,0,.08L259.78,28c0,.13.08.26.32.39a1.59,1.59,0,0,0,.62.15c.73,0,2.43-.05,5.11-.07l7.41-.15,3.51-.08C276.85,28.27,276.9,28.22,276.9,28.11ZM297.67,5.35q0,.08,0,6.39c0,4.22-.05,6.84-.07,7.88,0,.7-.08,1.59-.16,2.65s-.09,1.91-.12,2.62c-.05,1.3-.08,2-.08,2.06a7.52,7.52,0,0,1-1.36.86c-.91.52-1.46.82-1.64.9h-8.77c-.81,0-1.55,0-2.23-.08s-1.15-.05-1.44-.08l-.39-.07c-.23,0-.55-.46-.94-1.29a4.56,4.56,0,0,1-.54-1.44l-.08-18.18,3.24-5.38a.37.37,0,0,1,.35-.27l6-.35c2.92.16,4.77.28,5.58.35a1.26,1.26,0,0,1,.27.32,11.39,11.39,0,0,0,.71,1c.41.49.79,1,1.13,1.4A6.45,6.45,0,0,1,297.67,5.35ZM284.88,19a.1.1,0,1,0,.2,0l5.18-12.36-3.55,0a.25.25,0,0,0-.23.11l-1.79,2.77Zm6.63,5,.78-.07-.16-12-4.95,11.74a.24.24,0,0,0,.08.24.7.7,0,0,0,.31.07Zm12.58,4.65c-.39,0-.58-.08-.58-.23L303.86,9c0-.13-.08-.22-.24-.28l-2.84-.47a.44.44,0,0,1-.24-.11.47.47,0,0,1-.12-.24L300.54,2q0-.15.27-.27a1.32,1.32,0,0,1,.51-.16l6.94-.19,1.25,1.52.35,25.63Zm24.75-27-2.23,11.82H330a.24.24,0,0,1,.27.27l-.74,5.39-4.1,0-2,9.2a.4.4,0,0,1-.43.31l-5.7,0c-.18,0-.24-.07-.19-.2L319.05,20a2.21,2.21,0,0,1,.08-.35l.15-.47c0-.08-.06-.11-.19-.11H315a.37.37,0,0,1-.23-.11.37.37,0,0,1,0-.28l.78-5.07h5l1.37-6.32h-9.44c-.13,0-.2-.06-.2-.19V1.65a.11.11,0,0,1,.12-.12l16.26-.11C328.81,1.47,328.89,1.58,328.84,1.73Z"/>
</svg>
